<svg xmlns="http://www.w3.org/2000/svg" viewBox="0 0 1143.66 833.34"><defs><style>.cls-1{isolation:isolate;}.cls-2{fill:#ce8a51;}.cls-3{fill:#965b2e;}.cls-4{fill:#201520;}.cls-5{fill:#1a425c;}.cls-6{fill:#235169;}.cls-7{fill:#dadada;}.cls-8{fill:silver;}.cls-9{fill:#b27042;}.cls-10{fill:#cf8448;}.cls-11{fill:#14120d;}.cls-12{fill:#ebebeb;}.cls-13{fill:#143749;}.cls-14{fill:none;stroke:#0a3955;stroke-linecap:round;stroke-linejoin:round;stroke-width:4.64px;}.cls-15{fill:#fbbf0d;}.cls-16{fill:#e7453a;}.cls-17{fill:#1d1d1b;}.cls-18{fill:#c6c6c5;}.cls-18,.cls-26{mix-blend-mode:multiply;}.cls-19{fill:#424242;}.cls-20{fill:#575756;}.cls-21{fill:#ef830c;}.cls-22{fill:#fff;}.cls-23{fill:#bcbcbb;}.cls-24{fill:#eca96e;}.cls-25{fill:#b5211f;}.cls-26,.cls-33{opacity:0.13;}.cls-27{fill:#202020;}.cls-28{fill:#edecec;}.cls-29{fill:#f59d43;}.cls-30{fill:#f1850e;}.cls-31{fill:#f0840e;}.cls-32{fill:#ddd;}.cls-34{fill:#0da0dc;}.cls-35{fill:#cf8f5a;}.cls-36{fill:#dfdfdf;}.cls-37{fill:#9d9d9d;}</style></defs><g class="cls-1"><g id="Livello_2" data-name="Livello 2"><g id="Livello_1-2" data-name="Livello 1"><polygon class="cls-2" points="514.1 778.43 528.91 783.24 519.48 805.24 509.57 801.43 514.1 778.43"/><polygon class="cls-3" points="527.12 787.26 512.93 782.65 514.25 777.52 529.06 782.32 527.12 787.26"/><path class="cls-4" d="M504.52,807.22c-2.49-4.9,1.32-12.38,6.2-14.14L523,798.31c2.67,4,11.25,14.81,11.9,16.77.53,1.59-.38,3.95-.78,4.74Z"/><path class="cls-5" d="M507.83,483A30.63,30.63,0,0,0,488,521.5l53.88,131.55c2.75,8.61,13.33,12.91,23.62,9.62s16.41-12.93,13.67-21.53L546.6,502.31A30.64,30.64,0,0,0,507.83,483Z"/><path class="cls-6" d="M551.89,524.49c9.5,40.94,25.28,107.5,25,107.56-.85.18-2.59.42-3,.53C544.84,640.24,544.41,536.5,551.89,524.49Z"/><path class="cls-5" d="M459.41,480.39a30.63,30.63,0,0,0-30.85,30.4l10.3,141.79c-.06,9,8.65,16.41,19.45,16.49s19.62-7.19,19.69-16.22l12.25-142.06A30.62,30.62,0,0,0,459.41,480.39Z"/><polygon class="cls-2" points="466.26 786.9 450.69 786.9 451.86 803.66 465.09 803.66 466.26 786.9"/><polygon class="cls-3" points="451.01 792.2 465.94 792.2 466.26 786.9 450.69 786.9 451.01 792.2"/><path class="cls-4" d="M465.05,819.1c4.21-3.52,3.63-11.91-.17-15.44H451.54c-4,2.65-16.16,9.23-17.53,10.78-1.11,1.25-1.19,3.78-1.13,4.66Z"/><path class="cls-5" d="M547.35,500.62c-1,21.37-13.68,39.4-28.94,39.4H457.86c-15.27,0-27.17-18-28.11-39.4Z"/><path class="cls-5" d="M446.13,802.45l-7.76-152.32c.06-9.61,9.07-17.39,20.11-17.32s19.94,8,19.87,17.58l-8.88,152.06Z"/><path class="cls-5" d="M507.11,789.09l35.71-146.4c2.92-9.16,13.83-13.89,24.35-10.54s16.68,13.51,13.76,22.66L529.39,796Z"/><path class="cls-7" d="M550.1,341.17a23.46,23.46,0,0,0-23.58-23.33l-75.16.15h-.29a23.52,23.52,0,0,0-23.54,23.46c0,.36,1,159.58,1,159.58,0,3-.17,5.94,1.89,8.2a9.58,9.58,0,0,0,7.28,3.29H538.5a11.06,11.06,0,0,0,8-3.39c2.12-2.32.8-5.47.8-8.51C547.35,500.62,550.1,341.62,550.1,341.17Z"/><path class="cls-8" d="M427.53,392.82l2.22,107.8c0,3-1.36,6.35.7,8.61a9.58,9.58,0,0,0,7.28,3.29H538.5a11.06,11.06,0,0,0,8-3.39c2.12-2.32.05-3.77.05-6.82l3.5-155.15c-34.41,6-2.9,38.92-25.83,69.81C483.31,461.93,429.3,401.37,427.53,392.82Z"/><path class="cls-7" d="M517,362.1a24,24,0,0,1,26.27-40.26L616,379.54a15.49,15.49,0,1,1-16.92,25.93Z"/><path class="cls-7" d="M469.21,356.4a24,24,0,0,0-39.73-27.06l-45,81.24A15.48,15.48,0,1,0,410.1,428Z"/><path class="cls-2" d="M501.2,317.6c0,3.42-6,6.19-13.23,6.19s-13.23-2.77-13.23-6.19V269.11H501.2Z"/><path class="cls-9" d="M501.2,299.67a9.46,9.46,0,0,1-.7,1,5.59,5.59,0,0,1-3.76,1.89l-10.2,0s0,0,0,0h-.18l-.06,0-7.32,0a5.55,5.55,0,0,1-3.75-1.89,5.93,5.93,0,0,1-.47-.62v7.15a5.93,5.93,0,0,0,.47.62A5.55,5.55,0,0,0,479,309.7l7.32,0,.06,0h.18l0,0,10.2-.05a5.55,5.55,0,0,0,3.76-1.89,8.49,8.49,0,0,0,.7-1Z"/><path d="M487.85,261.55c-10.58,0-15.79,4.82-15.79,9.62,0,2.29.05,5.56.05,5.56v4.2h1.39l0,19.49a7,7,0,0,0,1.75,4.18,5.52,5.52,0,0,0,3.75,1.9l7.32,0s0,0,.06,0h.18s0,0,0,0l10.2-.05a5.59,5.59,0,0,0,3.76-1.89,7.13,7.13,0,0,0,1.75-4.18l-.05-19.49h1.4v-4.2s0-3.27,0-5.56C503.64,266.37,498.43,261.55,487.85,261.55Zm11.62,28a3.68,3.68,0,0,1-3.67,3.67H479.91a3.69,3.69,0,0,1-3.68-3.67V273.62a3.7,3.7,0,0,1,3.68-3.68H495.8a3.69,3.69,0,0,1,3.67,3.68Z"/><path class="cls-2" d="M476.18,287.05a2.91,2.91,0,0,1-2.52,3.26h0a2.92,2.92,0,0,1-3.27-2.52l-.81-6.27a2.93,2.93,0,0,1,2.53-3.27h0a2.92,2.92,0,0,1,3.26,2.53Z"/><rect x="473.5" y="276.5" width="2.7" height="15.76"/><path class="cls-2" d="M499.63,287.05a2.9,2.9,0,0,0,2.52,3.26h0a2.92,2.92,0,0,0,3.27-2.52l.8-6.27a2.92,2.92,0,0,0-2.52-3.27h0a2.92,2.92,0,0,0-3.26,2.53Z"/><rect x="499.47" y="276.5" width="2.7" height="15.76"/><path class="cls-10" d="M493.7,300.28a27.24,27.24,0,0,1-5.84.91,24.27,24.27,0,0,1-5.62-.91c-1-.36-1.73-.86-1.73-1.91h0a1.84,1.84,0,0,1,1.73-1.92,18.3,18.3,0,0,0,11.46,0c1-.39,1.73.86,1.73,1.92h0C495.43,299.42,494.72,299.91,493.7,300.28Z"/><path class="cls-9" d="M495.8,269.94H479.91a3.7,3.7,0,0,0-3.68,3.68v3.2a3.69,3.69,0,0,1,3.68-3.67H495.8a3.68,3.68,0,0,1,3.67,3.67v-3.2A3.69,3.69,0,0,0,495.8,269.94Z"/><path class="cls-5" d="M548.53,510.56c-1.87,18.13-119.78,2.08-119.87,1.54,0,0-3-54-3-63,3.43-10.26,6.72-20.58,9.95-30.9,4.54-14.48,9.59-29,11.84-44,.06-.38.47-.62,1-.72a2.13,2.13,0,0,1,.89-.17h61.44a2.89,2.89,0,0,1,.55.06h12.35a2,2,0,0,1,.89.18c.49.1.9.33,1,.72,2.25,15,7.29,29.55,11.83,44,3.24,10.32,7.58,21.2,11,31.45C550.62,449.71,549,506.48,548.53,510.56Z"/><path class="cls-5" d="M447.94,377.55q-.46-15.68-1.35-31.34-.4-7.21-.91-14.42c-.16-2.4-.34-4.79-.52-7.19-.09-1.2-.18-2.39-.28-3.59,0-.51-.55-2.82-.21-3.12a.89.89,0,0,1,.51-.17l8.25-.78a5,5,0,0,1,1.59,0c.74.19.59.48.65,1.23.11,1.3.21,2.6.31,3.9q.3,3.92.58,7.82.56,7.84,1,15.7.88,15.68,1.35,31.36v.32Z"/><rect class="cls-11" x="445.82" y="342.11" width="12.57" height="4.66" transform="translate(919.86 667.31) rotate(177.31)"/><rect class="cls-5" x="446.99" y="343.04" width="10.24" height="2.79" transform="translate(919.85 667.32) rotate(177.32)"/><path class="cls-11" d="M446.75,354.18c.42-.48,1.15-.46,1.64-.82a1.39,1.39,0,0,0-.1-2.23c-.53-.31-1.26-.22-1.71-.66a2.29,2.29,0,0,1-.55-1.34,16.57,16.57,0,0,1-.21-2.11c0-.26.29-.43.65-.51a2.07,2.07,0,0,1,.48-.08l4.47-.21,1.54-.08,4.47-.21a2.38,2.38,0,0,1,.49.05c.36,0,.67.18.69.44a16.65,16.65,0,0,1,0,2.12,2.32,2.32,0,0,1-.42,1.38c-.41.49-1.14.46-1.64.82a1.36,1.36,0,0,0-.51,1.15,1.39,1.39,0,0,0,.62,1.09c.52.31,1.25.22,1.71.66a2.31,2.31,0,0,1,.54,1.33,16.72,16.72,0,0,1,.21,2.12c0,.26-.29.43-.65.5a2,2,0,0,1-.48.09l-4.47.21L452,358l-4.48.21a1.84,1.84,0,0,1-.49,0c-.36,0-.67-.18-.69-.44a16.82,16.82,0,0,1,0-2.13A2.34,2.34,0,0,1,446.75,354.18Z"/><rect class="cls-5" x="447.3" y="356.07" width="10.71" height="9.78" transform="matrix(-1, 0.05, -0.05, -1, 921.73, 700.3)"/><path class="cls-5" d="M524.67,377.65q1.08-15.63,2.61-31.25.71-7.18,1.5-14.37.39-3.58.81-7.17l.42-3.57c.06-.51.67-2.79.34-3.11a.8.8,0,0,0-.5-.18l-8.21-1.13a5,5,0,0,0-1.59-.09c-.75.15-.61.44-.7,1.19-.16,1.3-.31,2.59-.47,3.89-.31,2.6-.6,5.19-.89,7.79q-.87,7.82-1.64,15.64-1.51,15.63-2.62,31.29l0,.31Z"/><rect class="cls-11" x="515.56" y="342.08" width="12.57" height="4.66" transform="matrix(1, 0.09, -0.09, 1, 32.08, -44.27)"/><rect class="cls-5" x="516.72" y="343.01" width="10.24" height="2.79" transform="translate(32.08 -44.26) rotate(5.01)"/><path class="cls-11" d="M526.8,354.36c-.4-.5-1.13-.51-1.61-.88a1.41,1.41,0,0,1,.2-2.24c.54-.28,1.26-.16,1.73-.59a2.27,2.27,0,0,0,.6-1.31,16.33,16.33,0,0,0,.3-2.1c0-.26-.27-.44-.63-.53a2.14,2.14,0,0,0-.48-.11l-4.46-.39-1.53-.13-4.46-.4a2.26,2.26,0,0,0-.49,0c-.37,0-.68.15-.71.41a16.85,16.85,0,0,0-.07,2.13,2.34,2.34,0,0,0,.36,1.39c.39.5,1.13.51,1.61.88a1.4,1.4,0,0,1,.46,1.17,1.37,1.37,0,0,1-.66,1.06c-.54.29-1.26.17-1.74.6a2.29,2.29,0,0,0-.59,1.3,16.74,16.74,0,0,0-.3,2.11c0,.26.27.44.63.53a2.2,2.2,0,0,0,.47.11l4.47.39,1.52.13,4.47.39a2.16,2.16,0,0,0,.49,0c.36,0,.68-.15.7-.41a16.86,16.86,0,0,0,.08-2.13A2.34,2.34,0,0,0,526.8,354.36Z"/><rect class="cls-5" x="515.27" y="356" width="10.71" height="9.78" transform="translate(33.53 -44.12) rotate(5.01)"/><path class="cls-2" d="M563.65,457.78l-3.6,3-.5.36c-2.52.05-4.77.26-6.59,2.3-1,1.41-2.43,2.68-3.34,3.84l-.2,6.95-13.69,12.44c-1.85,1.2-.39,5.49,1.2,5.73l14.58-6.28a22,22,0,0,0,4.5-4.29l8.47-10.5c.3-.11,3.37-1.87,6-3.33Z"/><path class="cls-12" d="M555.34,459.56l15.88,10,50.51-67.78a15.51,15.51,0,0,0-26.27-16.47Z"/><path class="cls-13" d="M541,650.65,507.11,789.09l8,2.49L549.44,678C554.25,664.52,548,655.81,541,650.65Z"/><path class="cls-13" d="M459.27,795.81,453,671.56l8.49-120.22c3.23-41.9,16-44.16,54.24-57.76l-87.82.68,2.52,41.57,9.31,140.29,6.44,126.33,19.66,0C462.34,801,458.75,798.32,459.27,795.81Z"/><path class="cls-2" d="M397.51,531l.2-7.29A39.28,39.28,0,0,1,402,505.18l-.15-5.93,15.19-.37.16,6.21c2.07,3.12,4.74,9.1,4.76,10.67.29,5.25.28,8-.77,11.88-1.11.49-3.79-.36-3.11-5.1-.24-1.07-.59-3.39-1.13-4.14l-1.52,7.4h0s0,5.68.1,6.13h0c0,4.09-3.74,3.58-3.92.53h0c-.1-.88-.1-4.9-.14-6.75-.35-.42-.66-.5-.84,0,0,1.81,0,5.5.05,6.42l.1,1.77c.17,2-3.11,3-4.13.35,0,0,0-6.51-.13-8.74-.22-.44-.46-.35-.71-.07l-.27,8.56c.15,2.19-3.28,2.34-3.84.4l-.29-1.35c-.22-.35.08-7.64.08-7.64-.13-.32-.3-.31-.5-.1a51.92,51.92,0,0,0-.56,5.65,8.29,8.29,0,0,1-.06,2.31,1.33,1.33,0,0,1-2.62-.14S397.5,531.12,397.51,531Z"/><path class="cls-7" d="M399.77,503.85l18.58-2.65L413,416.84a15.5,15.5,0,0,0-30.68,4.43Z"/><path class="cls-14" d="M627.86,361.2V350.53a3.16,3.16,0,0,1,3.16-3.17h24.11a3.17,3.17,0,0,1,3.17,3.17V361.2"/><path class="cls-15" d="M709.58,388.08H708.2L699.69,364a4.14,4.14,0,0,0-3.91-2.77H584.94A4.14,4.14,0,0,0,581,364l-8.51,24.11h-1.39a3,3,0,0,0-3,3v5.73H712.55V391A3,3,0,0,0,709.58,388.08Z"/><path class="cls-16" d="M571.13,405.47h1.39L581,439.15a4.14,4.14,0,0,0,3.91,2.77H695.78a4.14,4.14,0,0,0,3.91-2.77l8.51-33.68h1.38a3,3,0,0,0,3-3v-5.74H568.17v5.74A3,3,0,0,0,571.13,405.47Z"/><rect class="cls-17" x="598.06" y="393.22" width="8.3" height="15.42" rx="2.37"/><rect class="cls-17" x="674.35" y="393.22" width="8.3" height="15.42" rx="2.37"/><path class="cls-18" d="M572.52,388.08h-1.39a3,3,0,0,0-3,3v5.73H712.55V391a3,3,0,0,0-3-3H572.52Z"/><path class="cls-18" d="M708.2,405.47h1.38a3,3,0,0,0,3-3v-5.74H568.17v5.74a3,3,0,0,0,3,3H708.2Z"/><path class="cls-16" d="M507,273.78c0,.35,0,.69,0,1h-37.8c0-.35,0-.69,0-1,0-.59,0-1.16.05-1.72.71-12.07,8.89-19.64,18.87-19.64S506.28,260,507,272.06C507,272.62,507,273.19,507,273.78Z"/><path class="cls-16" d="M489.37,256.2c0,3.36-.56,6.08-1.25,6.08s-1.25-2.72-1.25-6.08.56-4.77,1.25-4.77S489.37,252.84,489.37,256.2Z"/><path class="cls-16" d="M494.86,257c-.62,3-1.67,5.34-2.35,5.19s-.72-2.73-.09-5.74,1.42-4.16,2.1-4S495.48,254,494.86,257Z"/><path class="cls-16" d="M481.37,257c.63,3,1.68,5.34,2.35,5.19s.72-2.73.1-5.74-1.43-4.16-2.1-4S480.75,254,481.37,257Z"/><path class="cls-16" d="M509.39,273.44c0,1.13-.33,1.38-.47,1.38h-41.6c-.13,0-.47-.25-.47-1.38s.33-1.38.47-1.38h41.6C509.05,272.06,509.39,272.31,509.39,273.44Z"/><path class="cls-18" d="M509.39,273.44c0,1.13-.33,1.38-.47,1.38h-41.6c-.13,0-.47-.25-.47-1.38s.33-1.38.47-1.38h41.6C509.05,272.06,509.39,272.31,509.39,273.44Z"/><path class="cls-18" d="M489.37,256.2c0,3.36-.56,6.08-1.25,6.08s-1.25-2.72-1.25-6.08.56-4.77,1.25-4.77S489.37,252.84,489.37,256.2Z"/><path class="cls-18" d="M494.86,257c-.62,3-1.67,5.34-2.35,5.19s-.72-2.73-.09-5.74,1.42-4.16,2.1-4S495.48,254,494.86,257Z"/><path class="cls-18" d="M481.37,257c.63,3,1.68,5.34,2.35,5.19s.72-2.73.1-5.74-1.43-4.16-2.1-4S480.75,254,481.37,257Z"/><path class="cls-19" d="M858.76,442.05H341.9a13.07,13.07,0,0,0-13,13V799.54H871.79V455.08A13.08,13.08,0,0,0,858.76,442.05Z"/><rect class="cls-8" x="353.03" y="464.5" width="495.15" height="318.15"/><polygon class="cls-19" points="929.97 831.69 269.78 831.69 237.2 819.74 962.55 819.74 929.97 831.69"/><rect class="cls-19" x="540.88" y="799.48" width="117.55" height="11.94"/><path class="cls-20" d="M649.1,799.48v4.34a5.44,5.44,0,0,1-5.43,5.43h-88a5.44,5.44,0,0,1-5.42-5.43v-4.34H237.2v20.26H962.55V799.48Z"/><path class="cls-21" d="M477.49,599.4l-.08,133.44a15.85,15.85,0,0,0,15.84,15.86l222.43.13A15.85,15.85,0,0,0,731.54,733l.08-133.44Z"/><path class="cls-21" d="M725.94,588.26,612.81,505.44a13.9,13.9,0,0,0-16.4,0L483.19,588.11a13.88,13.88,0,0,0-5.7,11.21v.08l254.13.16v-.09A13.89,13.89,0,0,0,725.94,588.26Z"/><rect class="cls-22" x="509.8" y="522.61" width="188.86" height="161.78" rx="4.97"/><rect class="cls-23" x="538.27" y="551.99" width="131.97" height="7.54"/><rect class="cls-23" x="538.25" y="597.73" width="131.97" height="7.54"/><rect class="cls-23" x="538.23" y="620.6" width="131.97" height="7.54"/><rect class="cls-23" x="538.26" y="574.86" width="131.97" height="7.54"/><path class="cls-24" d="M493.25,748.7l222.7.13a15.58,15.58,0,0,0,15.59-15.57l.08-133.7Z"/><path class="cls-24" d="M477.49,599.4l-.08,133.71A15.59,15.59,0,0,0,493,748.7l222.7.13Z"/><polygon class="cls-21" points="493.25 748.7 715.68 748.83 604.51 679.09 493.25 748.7"/><path class="cls-2" d="M981.31,377.46h0a2.31,2.31,0,0,1-3.06,1.13l-6.08-2.79a2.3,2.3,0,0,1-1.13-3.06h0a2.29,2.29,0,0,1,3.05-1.13l6.08,2.79A2.31,2.31,0,0,1,981.31,377.46Z"/><path class="cls-25" d="M944.57,411.13l-18.42,6.33L948,502.37a16.09,16.09,0,0,0,30.41-10.5Z"/><path class="cls-26" d="M1060.61,827.24c.16,2.35-9.92,4.75-22.5,5.35s-22.9-.82-23.06-3.18,9.92-4.75,22.5-5.34S1060.46,824.89,1060.61,827.24Z"/><path class="cls-26" d="M1118.52,827.86c.15,2.35-9.92,4.74-22.5,5.34s-22.91-.82-23.07-3.17,9.92-4.75,22.5-5.35S1118.36,825.5,1118.52,827.86Z"/><path class="cls-5" d="M1112.5,572.06H1064l3,111.45c-.06,1.33.34,5.54.36,6.45L1086,823.83c.44,7.51,13,4.45,12.6-3.06Z"/><path class="cls-5" d="M1013,572.06l-.63,105.63c-.09,1.33.23,5.55.24,6.45l16.64,140c.3,7.52,13,4.7,12.65-2.83l20.12-249.27Z"/><path class="cls-13" d="M1112.5,572.06h-46.13c17.63,11.12,32.25,26.18,30.39,61.15l-10.5,187.57a6.3,6.3,0,0,1-.36,2.48l.08.57c.44,7.51,13,4.46,12.6-3.06Z"/><path class="cls-13" d="M1017.5,572.06c12.73,13.21,31.11,18.25,28.07,51.7l-16,197.58a6.11,6.11,0,0,1-.38,2.41l0,.41c.3,7.52,13,4.7,12.65-2.82l20.12-249.28Z"/><path class="cls-25" d="M981.27,447.08c5.4,4.48,28.65-14.4,32.37-19l56.41-55.91a18.88,18.88,0,0,0-2.64-26.41,18.51,18.51,0,0,0-26.21,2.53l-63,82.38C974.49,435.27,975.86,442.61,981.27,447.08Z"/><path d="M1049.28,321.15a29.61,29.61,0,0,1-2.94,13c-9,15.4.62,15.5-4,23.95,13.06-.73,27.74-16,15.34-38.22C1055.55,319,1051.05,320.54,1049.28,321.15Z"/><path class="cls-16" d="M1001.75,577.57c41.41,11.33,84.38,13.8,129.9,1.79-4.56-75.8-12-152.13-29.91-225.24-.35-6.26-7.53-15.9-13.71-17.05l-32.23-.25c-18.56,21.86-33.69,36.41-35.27,66.83Z"/><path class="cls-25" d="M1061.5,359.91c.52,43.78,20.06,50,25.38,94.43,7.48,46.18-12.63,91.85-4.93,132.53,6.68,2.09,43.53-4.18,49.7-7.51-4.56-75.8-12-152.13-29.91-225.24C1101.39,347.86,1073.35,359,1061.5,359.91Z"/><path class="cls-2" d="M1041.8,309.12c-.86-.49-3.46-1-3.36-3.54a30.94,30.94,0,0,0,3.17-10.8c.16-6.73,2.77-9.48,3.28-10.7,25.59,4.66,34.35,33.79,31.13,53.3-7.19,5-16.09,5.27-21.56,1.84l1.5-18.39-7.76,2c-4.61.13-6.14-2.41-6.13-5.45Z"/><path class="cls-9" d="M1055.13,320.82c6.27-1.29,11.23-4.22,10.73-14.85,4.16,1.26,5.1,5.27,4.82,11.4.77,1.77,8.43,18.39,3.86,18.83-1.71,3.23-9.4-1.15-10.48-10C1062.8,323.84,1060.35,321.59,1055.13,320.82Z"/><path class="cls-16" d="M1138.14,452.33c-4.68,4.11-12.89-1.2-17.28-5.77l-54.34-76.37c-7.69-8-6-18.12.88-24.19s16.4-5.78,24.08,2.21l48.07,79.55C1147.09,439.93,1142.82,448.21,1138.14,452.33Z"/><path class="cls-27" d="M1044.39,284.76c2.2,8.59,4.47,14.31,13.45,16.5,6.67,1.29,10.2,5.66,9.8,13.88-.19,9.05-1,16,6.28,21.54,18.25,6.82-3.49,25.47,4.51,37.52C1088,397,1139.34,386,1120,364.32c-4.85-3-11.91-9-9.51-18.95a12.72,12.72,0,0,0-7.73-14.64c-4.39-2.74-6.94-4.73-6.56-13.55-.11-3.14.83-8.23-6.94-11.84-5.68-3.59-7.39-7.72-7.35-13.88C1080.61,274.34,1053.87,267.71,1044.39,284.76Z"/><path d="M1093.07,363c-8-12.05,7.73-27.55-10.52-34.37-7.62-3.46-10.91-6.7-10.6-16.61.4-8.22-3.13-12.59-9.8-13.88-9-2.19-11.25-7.91-13.45-16.5a19.93,19.93,0,0,1,3.56-4.66,18.87,18.87,0,0,0-7.87,7.74c2.2,8.59,4.47,14.31,13.45,16.5,6.67,1.29,10.2,5.66,9.8,13.88-.26,9.15-1.87,17.06,6.28,21.54,17.63,6.86-5,27.33,4.36,39.3,9.44,16,37.52,18,43.94,3.08C1108,381,1098.84,369.54,1093.07,363Z"/><path class="cls-28" d="M1071.43,311a4.13,4.13,0,1,1-4.13-4.13A4.13,4.13,0,0,1,1071.43,311Z"/><path class="cls-27" d="M1098.59,829.31c4.85-2.78,3.94-10.43-.39-11.13h-12.53s-10.51,6.06-11.59,7.55c-1,1.16-.9,1.49-.76,3.58Z"/><path class="cls-27" d="M1041.3,829.31c4.85-2.78,3.94-10.43-.39-11.13h-12.52s-10.51,6.06-11.6,7.55c-1,1.16-.9,1.49-.76,3.58Z"/><rect class="cls-28" x="811.7" y="376.18" width="244.11" height="192.81" rx="17.47"/><path class="cls-23" d="M1055.81,410.64V392.91a16.73,16.73,0,0,0-16.73-16.73H828.42a16.73,16.73,0,0,0-16.72,16.73v17.73Z"/><rect class="cls-29" x="889.67" y="425.84" width="28.59" height="20.68"/><rect class="cls-29" x="921.19" y="425.84" width="28.59" height="20.68"/><rect class="cls-30" x="1015.76" y="425.84" width="28.59" height="20.68"/><rect class="cls-29" x="952.71" y="425.84" width="28.59" height="20.68"/><rect class="cls-30" x="984.24" y="425.84" width="28.59" height="20.68"/><rect class="cls-29" x="826.62" y="450.41" width="28.59" height="20.68"/><rect class="cls-29" x="889.67" y="450.41" width="28.59" height="20.68"/><rect class="cls-29" x="921.19" y="450.41" width="28.59" height="20.68"/><rect class="cls-30" x="1015.76" y="450.41" width="28.59" height="20.68"/><rect class="cls-30" x="984.24" y="450.41" width="28.59" height="20.68"/><rect class="cls-29" x="826.62" y="474.97" width="28.59" height="20.68"/><rect class="cls-29" x="858.14" y="474.97" width="28.59" height="20.68"/><rect class="cls-29" x="921.19" y="474.97" width="28.59" height="20.68"/><rect class="cls-30" x="1015.76" y="474.97" width="28.59" height="20.68"/><rect class="cls-29" x="952.71" y="474.97" width="28.59" height="20.68"/><rect class="cls-30" x="984.24" y="474.97" width="28.59" height="20.68"/><rect class="cls-29" x="826.62" y="499.54" width="28.59" height="20.68"/><rect class="cls-29" x="889.67" y="499.54" width="28.59" height="20.68"/><rect class="cls-29" x="921.19" y="499.54" width="28.59" height="20.68"/><rect class="cls-30" x="1015.76" y="499.54" width="28.59" height="20.68"/><rect class="cls-29" x="952.71" y="499.54" width="28.59" height="20.68"/><rect class="cls-30" x="984.24" y="499.54" width="28.59" height="20.68"/><rect class="cls-29" x="826.62" y="524.1" width="28.59" height="20.68"/><rect class="cls-29" x="889.67" y="524.1" width="28.59" height="20.68"/><rect class="cls-29" x="921.19" y="524.1" width="28.59" height="20.68"/><rect class="cls-29" x="858.16" y="450.42" width="28.59" height="20.68"/><path class="cls-19" d="M871.78,465.73a.94.94,0,0,1-.71-.33l-3.49-4.15a.92.92,0,1,1,1.41-1.19l2.66,3.17,4.19-7a.92.92,0,0,1,1.58.95l-4.85,8.09a.93.93,0,0,1-.72.44Z"/><rect class="cls-29" x="889.65" y="475.02" width="28.59" height="20.68"/><path class="cls-19" d="M903.26,490.32a.93.93,0,0,1-.7-.32l-3.5-4.16a.91.91,0,0,1,.11-1.29.92.92,0,0,1,1.3.11l2.67,3.16,4.19-7a.91.91,0,0,1,1.26-.32.93.93,0,0,1,.32,1.27l-4.86,8.09a.91.91,0,0,1-.71.44Z"/><rect class="cls-29" x="858.12" y="499.56" width="28.59" height="20.68"/><path class="cls-19" d="M872.42,516.19a6.3,6.3,0,1,1,6.29-6.29A6.3,6.3,0,0,1,872.42,516.19Zm0-10.74a4.45,4.45,0,1,0,4.45,4.45A4.45,4.45,0,0,0,872.42,505.45Z"/><rect class="cls-29" x="858.14" y="524.1" width="28.59" height="20.68"/><path class="cls-19" d="M871.76,539.41a.9.9,0,0,1-.7-.33l-3.5-4.15a.92.92,0,0,1,1.41-1.19l2.66,3.17,4.2-7a.92.92,0,1,1,1.58,1L872.55,539a.92.92,0,0,1-.72.44Z"/><rect class="cls-29" x="952.71" y="450.41" width="28.59" height="20.68"/><path class="cls-19" d="M967,467a6.29,6.29,0,1,1,6.29-6.29A6.29,6.29,0,0,1,967,467Zm0-10.73a4.45,4.45,0,1,0,4.45,4.44A4.45,4.45,0,0,0,967,456.3Z"/><circle class="cls-19" cx="845.58" cy="392.97" r="7.07"/><path class="cls-19" d="M845.58,393.8h0a3.55,3.55,0,0,1-3.54-3.54v-18.5a3.55,3.55,0,0,1,3.54-3.54h0a3.54,3.54,0,0,1,3.53,3.54v18.5A3.54,3.54,0,0,1,845.58,393.8Z"/><circle class="cls-19" cx="903.09" cy="392.97" r="7.07"/><path class="cls-19" d="M903.09,393.8h0a3.54,3.54,0,0,1-3.53-3.54v-18.5a3.54,3.54,0,0,1,3.53-3.54h0a3.54,3.54,0,0,1,3.53,3.54v18.5A3.54,3.54,0,0,1,903.09,393.8Z"/><circle class="cls-19" cx="960.6" cy="392.97" r="7.07"/><path class="cls-19" d="M960.6,393.8h0a3.54,3.54,0,0,1-3.53-3.54v-18.5a3.54,3.54,0,0,1,3.53-3.54h0a3.55,3.55,0,0,1,3.54,3.54v18.5A3.55,3.55,0,0,1,960.6,393.8Z"/><circle class="cls-19" cx="1018.11" cy="392.97" r="7.07"/><path class="cls-19" d="M1018.11,393.8h0a3.54,3.54,0,0,1-3.53-3.54v-18.5a3.54,3.54,0,0,1,3.53-3.54h0a3.54,3.54,0,0,1,3.54,3.54v18.5A3.54,3.54,0,0,1,1018.11,393.8Z"/><path class="cls-2" d="M983.77,372.5v5.83a2.37,2.37,0,0,1-2.37,2.37h0a2.37,2.37,0,0,1-2.37-2.37V372.5a2.38,2.38,0,0,1,2.37-2.37h0A2.38,2.38,0,0,1,983.77,372.5Z"/><rect class="cls-2" x="980.86" y="372.24" width="10.56" height="4.74" rx="2.37" transform="translate(611.54 1360.75) rotate(-90)"/><path class="cls-2" d="M993.25,371.59v5.82a2.37,2.37,0,0,1-2.37,2.37h0a2.37,2.37,0,0,1-2.37-2.37v-5.82a2.37,2.37,0,0,1,2.37-2.37h0A2.37,2.37,0,0,1,993.25,371.59Z"/><path class="cls-2" d="M997.17,373v4.76a2,2,0,0,1-2,2h0a2,2,0,0,1-2-2V373a2,2,0,0,1,2-1.95h0A2,2,0,0,1,997.17,373Z"/><path class="cls-2" d="M1055.86,509,1050.6,514l0,0s-4.64,2.81-5,3l-5,3.19c-1.54.92-.08,3.48,1.71,2.81l4.81-2.55c.77-.36,4-2.37,5.56-3.26.52.08.74.28.45.67-1.48.9-4.47,2.74-5.25,3.16l-6.29,3.35c-1.72.87-.89,4,1.78,3.54l6-3.18c.53-.41,4.13-2.63,6-3.63.47,0,.52.2.41.54,0,0-4.82,3.36-5.25,3.41l-5.28,3c-1.86,1-.26,3.83,1.59,3.33l5-2.39c.4,0,6.18-3.89,6.18-3.89.32-.05.4.09.33.36a48.28,48.28,0,0,1-4.32,3.27,26,26,0,0,0-3.26,2.06,1.26,1.26,0,0,0,1.43,2.05l3.25-1.75,5.82-3.81a37.43,37.43,0,0,0,12.9-12.72l4.9-2.84-7.29-12.54-5.12,3c-3.57-.13-9.48.64-10.76,1.41Z"/><path class="cls-16" d="M1066.7,499.18l49.17-63.05c4.55-7.27,11.41-11.13,18.21-6.09a17,17,0,0,1,4.06,22.29L1081,511.46C1078.63,514.52,1064.33,502.4,1066.7,499.18Z"/><path class="cls-31" d="M493.11,329.09a2.94,2.94,0,0,1-2.88,3l-3.92.13a2.94,2.94,0,0,1-3.07-2.8l-.11-3.25a2.94,2.94,0,0,1,2.88-3l3.91-.13a2.94,2.94,0,0,1,3.08,2.8Z"/><path class="cls-31" d="M493.08,444.18,483.86,457,473,443.69c9.47-33.32,12.82-83.48,11.56-114.73l5.79.25C498,340.67,500.58,409.34,493.08,444.18Z"/><path class="cls-10" d="M252.31,378.84c2.13-1.58,3.78-5,7.27-4.5s13,3.54,15.32-11.87-4.7-13.23-11.68-14.26-6-2.61-5.51-5.76,1.66-4.87,1.3-9-5.27-7.37-5.63-4.89-4.89,16.63-7.07,21.25-1.59,9.19-.06,11.26-2.51,5.91-2.51,5.91Z"/><path class="cls-9" d="M252.31,378.84,246,370.13c3-3.26,6.8-7.08,9.13-7.87,4-1.36,7.67-12.72,4.25-14.93a19.8,19.8,0,0,0,3.84.88c7,1,14-1.15,11.68,14.26s-11.84,12.39-15.32,11.87S254.44,377.26,252.31,378.84Z"/><path class="cls-32" d="M244.25,365.9l-69,56.24s-3.39,51.37,6.31,37.46c.85-.56,73.61-82.5,73.61-82.5C257.47,371.1,248.93,363.88,244.25,365.9Z"/><path class="cls-33" d="M130.33,827.57c0,3.19-16.49,5.77-36.84,5.77s-36.84-2.58-36.84-5.77,16.49-5.77,36.84-5.77S130.33,824.38,130.33,827.57Z"/><path class="cls-33" d="M209.5,826.36c0,3.18-12.56,5.77-28,5.77s-28-2.59-28-5.77,12.55-5.77,28-5.77S209.5,823.17,209.5,826.36Z"/><path class="cls-27" d="M209.89,827.25l-28.19-.5c-4.88-3-3.88-11.59.62-13.31l9.79-.85s15.42,5.73,16.9,7.25S209.89,827.25,209.89,827.25Z"/><path class="cls-27" d="M130.3,828,101,827.19c-4.5-3.54-2.74-13,1.94-14.16l9.81.31s15.47,7.24,16.75,8.92C131.17,824,130.32,826.74,130.3,828Z"/><path class="cls-5" d="M97,810.66,90.53,681.79C90.39,676,93.6,710.14,80.3,553.91c-.36-18.39,116.6-64.14,122.66-46.78,0,0,22.61,148.45,24.64,164.38.1.83.15,1.3.14,1.37.29,3.5-30.39,139.3-30.39,139.3.41,7.09-18.14,6.1-18.55-1l3.47-140.94L155,600.82l-12.67,1.63s-6.26,77-6.23,78L118,812.08C118,819.18,97.09,817.76,97,810.66Z"/><path class="cls-13" d="M97,810.66,89.68,681.54c0-1.14-10.91-131.76-10.91-131.76,2,.32,22.58-3.69,32.38-4L104.9,679.25c0,1,.11,5,.14,6.18l6.5,128.87a3.71,3.71,0,0,0,.78,2.2C106.13,817.54,97.07,815.33,97,810.66Z"/><path class="cls-6" d="M212.2,567.07c2.29,15,13.23,90.58,15.28,104.45.21,1.42-2.44,2.18-2.88,2.23C193,676.75,202.31,578.33,212.2,567.07Z"/><path class="cls-13" d="M196.43,703c-.73-17.43-6.47-23.63-14-27.32l-4.92,135.58c.17,3,3.52,4.86,7.33,5.55Z"/><path class="cls-28" d="M211.53,539.31c-44.44,7.05-133.76,18.45-135.26,17.16,0-65.11.47-175.06.57-179.78,1.24-16.2,12.62-29.82,21.74-33.1a106.1,106.1,0,0,1,20.87-5.91c38.68-9.28,67.89,15.33,75.18,63.78Z"/><path class="cls-32" d="M76.6,375.72c.79-15.34,8.66-23.25,17.44-29.86,13.76-9.33,59.06,3.61,37.4,77-11,25.71,5.9,71,7.06,126.89,0,0-60.95,6.62-62.23,6.72C73.15,492.48,75.11,381.35,76.6,375.72Z"/><path class="cls-27" d="M124.79,311l.6-13.17A17.32,17.32,0,0,1,131.08,286a16.73,16.73,0,0,1,12.27-4.3l10,.54a7.47,7.47,0,0,1,5.27,2.42,8,8,0,0,1,1.9,5.68S139,313.21,124.79,311Z"/><path class="cls-10" d="M165.31,308.67c-.73-4.3-3.38-12.59-4.71-18.32l-14.53-.79a4.16,4.16,0,0,0-3,.9,3.86,3.86,0,0,0-1.42,2.71L140.85,307l-5.12-.5.32-5.85c.08-1.63-1.7-3-3.34-3.06h-.07a3,3,0,0,0-3.27,2.71l-.64,9.48-3.91-.24-2.75,27.72c6.7,8.34,19.11,11,26.3,3.63l1.31-13.23,7,.41a4,4,0,0,0,2.83-1.08c.8-.72,1.26-4.48,1.32-5.47.08-2.84.24-5.71.38-8.6C161.1,311.89,166.46,312,165.31,308.67Z"/><path class="cls-9" d="M142.93,290.32a4.11,4.11,0,0,1,3-.9l14.53.78c.14.64,1,3.81,1.17,4.5l-13.23-.95a4.13,4.13,0,0,0-3.06.89,3.89,3.89,0,0,0-1.42,2.71l-.52,5.21,0,9.59c-1.23.22-3.34-2-2.72-4.22l.43-8,.38-7A3.82,3.82,0,0,1,142.93,290.32Z"/><path class="cls-9" d="M128.75,309.71l.1.84c.33,1.19,1.54,1.77,3,1.85l.45,0a2.79,2.79,0,0,0,3.24-2.65l-.38,6.53,14.37,13-.35,3.52c-.62,0-8.08.06-8.08.06-8.08-.28-13.34-6.37-13-12.14Z"/><path class="cls-27" d="M160.8,321.24l-5.56-.3a2.32,2.32,0,1,1,.25-4.62l5.52.3.14-3.09-2.86-.15-5.14-.27-8.84-.48a4,4,0,0,1-2.59-1.53,4.43,4.43,0,0,1-.93-3l.06-2.78-5-.18-.74,14a9.37,9.37,0,0,0,1.9,6.67c1.6,1.78,3.47,3.15,5.69,3.27l13.64.73c4-.3,4.2-4.16,4.4-6Z"/><path class="cls-34" d="M152,346.49a3.1,3.1,0,0,1-2.07,3.88L146,351.63a3.12,3.12,0,0,1-3.94-2L141,346.37a3.13,3.13,0,0,1,2.08-3.89l3.95-1.25a3.12,3.12,0,0,1,3.94,2Z"/><path class="cls-34" d="M180.31,466.77l-6.6,15.34L158.94,467c2.15-36.61-7.85-85.17-13.65-117.78l6.11-.57C161,359.63,180.07,429,180.31,466.77Z"/><path class="cls-35" d="M97.58,493.88c4.36-1.45,6.38-1.31,10.58.41-3.47,1.08-4.09,2.14-5.27,4.4-1.82,7.4,12.22,16.88,17.07,17.17,1.06,3-10.65,13.58-21.27,14-8.24-2.36-12.32-17.61-19.69-27.63L90.62,487.6C92.63,489.34,95,491.51,97.58,493.88Z"/><path class="cls-28" d="M3.86,445.18c-5.13-6.95-5.15-16.4,0-21.09L84,350.87c9-8.22,28.83-4.9,36.39,5.34,8.77,11,4.5,26.47-6,34.91L24.34,451.86A18.53,18.53,0,0,1,3.86,445.18Z"/><path class="cls-28" d="M78.26,507.8,6.39,449.37c-17.86-26.62,13.86-34.55,29.35-21.07l59.67,61.63C96.74,493.42,79.72,511.4,78.26,507.8Z"/><path class="cls-35" d="M108.16,494.29c4.42,1.47,14.5,15,11.78,22.58s-21.88-12.63-21.88-12.63l5.12-9.22Z"/><path class="cls-10" d="M161,316.62l-10.7-.55s.53,4.63,4.93,4.87S161,316.62,161,316.62Z"/><circle class="cls-36" cx="929.2" cy="205.25" r="55.07"/><path class="cls-30" d="M953.44,183.31a38.78,38.78,0,0,1-24.24-8.85c-7.58,7.59-17.7,8.85-23.6,8.85a32.24,32.24,0,0,1-4.85-.32v16.3c0,34.14,28.45,43.46,28.45,43.46s28.46-9.32,28.46-43.46V183A23.46,23.46,0,0,1,953.44,183.31ZM925.65,220l-12.1-12.8,3.56-4.27,8.54,6.05,17.78-13.16,3.2,2.84Z"/><path class="cls-32" d="M314.8,166.47a55.07,55.07,0,1,1-55.07-55.07,55.08,55.08,0,0,1,55.07,55.07"/><path class="cls-37" d="M259.73,128.1a14,14,0,0,1,14,14h5.79a19.76,19.76,0,1,0-39.52,0h5.79a14,14,0,0,1,14-14"/><rect class="cls-37" x="239.97" y="142.07" width="5.79" height="20.95"/><rect class="cls-37" x="273.7" y="142.07" width="5.79" height="20.95"/><path class="cls-30" d="M259.73,210.63h0a28.58,28.58,0,1,1,28.58-28.58,28.59,28.59,0,0,1-28.58,28.58"/><rect class="cls-32" x="257.42" y="176.04" width="4.62" height="16.71"/><path class="cls-32" d="M265.71,177a6,6,0,1,1-6-6,6,6,0,0,1,6,6"/><path class="cls-36" d="M549.21,0H416.44V19.73H549.21V0Z"/><circle class="cls-37" cx="429.59" cy="9.93" r="3.23"/><circle class="cls-37" cx="440.39" cy="9.93" r="3.23"/><circle class="cls-37" cx="451.06" cy="9.93" r="3.23"/><path class="cls-23" d="M526.25,6.7H467.19A3.28,3.28,0,0,0,464,9.93a3.28,3.28,0,0,0,3.22,3.22h59.19a3.29,3.29,0,0,0,3.23-3.22A3.5,3.5,0,0,0,526.25,6.7Z"/><path class="cls-22" d="M416.44,19.73v95.79H549.33V19.73Z"/><path class="cls-21" d="M466,53.53a24,24,0,0,1,17.88-7.89A24.34,24.34,0,0,1,508.14,69.9V72l5.15,5.15a29.67,29.67,0,0,0,.91-7.27,30.4,30.4,0,0,0-30.32-30.32,29.54,29.54,0,0,0-22.13,9.7Z"/><path class="cls-24" d="M501.16,86.88a23.8,23.8,0,0,1-17.28,7.27A24.32,24.32,0,0,1,459.63,69.9V67.78l-5.15-5.16a29.75,29.75,0,0,0-.91,7.28,30.23,30.23,0,0,0,51.84,21.22Z"/><polygon class="cls-21" points="479.34 56.26 459.63 57.77 461.14 38.06 479.34 56.26"/><polygon class="cls-24" points="488.43 83.54 508.14 82.02 506.62 101.73 488.43 83.54"/></g></g></g></svg>