<svg width="122" height="15" viewBox="0 0 122 15" fill="none" xmlns="http://www.w3.org/2000/svg">
<path d="M0.774 7.84202C0.774 6.61802 1.05 5.52002 1.602 4.54802C2.154 3.56402 2.904 2.79602 3.852 2.24402C4.812 1.69202 5.874 1.41602 7.038 1.41602C8.406 1.41602 9.6 1.74602 10.62 2.40602C11.64 3.06602 12.384 4.00202 12.852 5.21402H10.89C10.542 4.45802 10.038 3.87602 9.378 3.46802C8.73 3.06002 7.95 2.85602 7.038 2.85602C6.162 2.85602 5.376 3.06002 4.68 3.46802C3.984 3.87602 3.438 4.45802 3.042 5.21402C2.646 5.95802 2.448 6.83402 2.448 7.84202C2.448 8.83802 2.646 9.71402 3.042 10.47C3.438 11.214 3.984 11.79 4.68 12.198C5.376 12.606 6.162 12.81 7.038 12.81C7.95 12.81 8.73 12.612 9.378 12.216C10.038 11.808 10.542 11.226 10.89 10.47H12.852C12.384 11.67 11.64 12.6 10.62 13.26C9.6 13.908 8.406 14.232 7.038 14.232C5.874 14.232 4.812 13.962 3.852 13.422C2.904 12.87 2.154 12.108 1.602 11.136C1.05 10.164 0.774 9.06602 0.774 7.84202ZM19.5923 14.286C18.6683 14.286 17.8283 14.076 17.0723 13.656C16.3283 13.236 15.7403 12.642 15.3083 11.874C14.8883 11.094 14.6783 10.194 14.6783 9.17402C14.6783 8.16602 14.8943 7.27802 15.3263 6.51002C15.7703 5.73002 16.3703 5.13602 17.1263 4.72802C17.8823 4.30802 18.7283 4.09802 19.6643 4.09802C20.6003 4.09802 21.4463 4.30802 22.2023 4.72802C22.9583 5.13602 23.5523 5.72402 23.9843 6.49202C24.4283 7.26002 24.6503 8.15402 24.6503 9.17402C24.6503 10.194 24.4223 11.094 23.9663 11.874C23.5223 12.642 22.9163 13.236 22.1483 13.656C21.3803 14.076 20.5283 14.286 19.5923 14.286ZM19.5923 12.846C20.1803 12.846 20.7323 12.708 21.2483 12.432C21.7643 12.156 22.1783 11.742 22.4903 11.19C22.8143 10.638 22.9763 9.96602 22.9763 9.17402C22.9763 8.38202 22.8203 7.71002 22.5083 7.15802C22.1963 6.60602 21.7883 6.19802 21.2843 5.93402C20.7803 5.65802 20.2343 5.52002 19.6463 5.52002C19.0463 5.52002 18.4943 5.65802 17.9903 5.93402C17.4983 6.19802 17.1023 6.60602 16.8023 7.15802C16.5023 7.71002 16.3523 8.38202 16.3523 9.17402C16.3523 9.97802 16.4963 10.656 16.7843 11.208C17.0843 11.76 17.4803 12.174 17.9723 12.45C18.4643 12.714 19.0043 12.846 19.5923 12.846ZM28.442 0.804023V14.124H26.804V0.804023H28.442ZM32.8717 0.804023V14.124H31.2337V0.804023H32.8717ZM35.0513 9.15602C35.0513 8.14802 35.2553 7.26602 35.6633 6.51002C36.0713 5.74202 36.6293 5.14802 37.3373 4.72802C38.0573 4.30802 38.8553 4.09802 39.7313 4.09802C40.5953 4.09802 41.3453 4.28402 41.9813 4.65602C42.6173 5.02802 43.0913 5.49602 43.4033 6.06002V4.26002H45.0593V14.124H43.4033V12.288C43.0793 12.864 42.5933 13.344 41.9453 13.728C41.3093 14.1 40.5653 14.286 39.7133 14.286C38.8373 14.286 38.0453 14.07 37.3373 13.638C36.6293 13.206 36.0713 12.6 35.6633 11.82C35.2553 11.04 35.0513 10.152 35.0513 9.15602ZM43.4033 9.17402C43.4033 8.43002 43.2533 7.78202 42.9533 7.23002C42.6533 6.67802 42.2453 6.25802 41.7293 5.97002C41.2253 5.67002 40.6673 5.52002 40.0553 5.52002C39.4433 5.52002 38.8853 5.66402 38.3813 5.95202C37.8773 6.24002 37.4753 6.66002 37.1753 7.21202C36.8753 7.76402 36.7253 8.41202 36.7253 9.15602C36.7253 9.91202 36.8753 10.572 37.1753 11.136C37.4753 11.688 37.8773 12.114 38.3813 12.414C38.8853 12.702 39.4433 12.846 40.0553 12.846C40.6673 12.846 41.2253 12.702 41.7293 12.414C42.2453 12.114 42.6533 11.688 42.9533 11.136C43.2533 10.572 43.4033 9.91802 43.4033 9.17402ZM49.4654 6.09602C49.8014 5.50802 50.2934 5.02802 50.9414 4.65602C51.5894 4.28402 52.3274 4.09802 53.1554 4.09802C54.0434 4.09802 54.8414 4.30802 55.5494 4.72802C56.2574 5.14802 56.8154 5.74202 57.2234 6.51002C57.6314 7.26602 57.8354 8.14802 57.8354 9.15602C57.8354 10.152 57.6314 11.04 57.2234 11.82C56.8154 12.6 56.2514 13.206 55.5314 13.638C54.8234 14.07 54.0314 14.286 53.1554 14.286C52.3034 14.286 51.5534 14.1 50.9054 13.728C50.2694 13.356 49.7894 12.882 49.4654 12.306V14.124H47.8274V0.804023H49.4654V6.09602ZM56.1614 9.15602C56.1614 8.41202 56.0114 7.76402 55.7114 7.21202C55.4114 6.66002 55.0034 6.24002 54.4874 5.95202C53.9834 5.66402 53.4254 5.52002 52.8134 5.52002C52.2134 5.52002 51.6554 5.67002 51.1394 5.97002C50.6354 6.25802 50.2274 6.68402 49.9154 7.24802C49.6154 7.80002 49.4654 8.44202 49.4654 9.17402C49.4654 9.91802 49.6154 10.572 49.9154 11.136C50.2274 11.688 50.6354 12.114 51.1394 12.414C51.6554 12.702 52.2134 12.846 52.8134 12.846C53.4254 12.846 53.9834 12.702 54.4874 12.414C55.0034 12.114 55.4114 11.688 55.7114 11.136C56.0114 10.572 56.1614 9.91202 56.1614 9.15602ZM64.2935 14.286C63.3695 14.286 62.5295 14.076 61.7735 13.656C61.0295 13.236 60.4415 12.642 60.0095 11.874C59.5895 11.094 59.3795 10.194 59.3795 9.17402C59.3795 8.16602 59.5955 7.27802 60.0275 6.51002C60.4715 5.73002 61.0715 5.13602 61.8275 4.72802C62.5835 4.30802 63.4295 4.09802 64.3655 4.09802C65.3015 4.09802 66.1475 4.30802 66.9035 4.72802C67.6595 5.13602 68.2535 5.72402 68.6855 6.49202C69.1295 7.26002 69.3515 8.15402 69.3515 9.17402C69.3515 10.194 69.1235 11.094 68.6675 11.874C68.2235 12.642 67.6175 13.236 66.8495 13.656C66.0815 14.076 65.2295 14.286 64.2935 14.286ZM64.2935 12.846C64.8815 12.846 65.4335 12.708 65.9495 12.432C66.4655 12.156 66.8795 11.742 67.1915 11.19C67.5155 10.638 67.6775 9.96602 67.6775 9.17402C67.6775 8.38202 67.5215 7.71002 67.2095 7.15802C66.8975 6.60602 66.4895 6.19802 65.9855 5.93402C65.4815 5.65802 64.9355 5.52002 64.3475 5.52002C63.7475 5.52002 63.1955 5.65802 62.6915 5.93402C62.1995 6.19802 61.8035 6.60602 61.5035 7.15802C61.2035 7.71002 61.0535 8.38202 61.0535 9.17402C61.0535 9.97802 61.1975 10.656 61.4855 11.208C61.7855 11.76 62.1815 12.174 62.6735 12.45C63.1655 12.714 63.7055 12.846 64.2935 12.846ZM73.1431 5.86202C73.4311 5.29802 73.8391 4.86002 74.3671 4.54802C74.9071 4.23602 75.5611 4.08002 76.3291 4.08002V5.77202H75.8971C74.0611 5.77202 73.1431 6.76802 73.1431 8.76002V14.124H71.5051V4.26002H73.1431V5.86202ZM77.608 9.15602C77.608 8.14802 77.812 7.26602 78.22 6.51002C78.628 5.74202 79.186 5.14802 79.894 4.72802C80.614 4.30802 81.412 4.09802 82.288 4.09802C83.152 4.09802 83.902 4.28402 84.538 4.65602C85.174 5.02802 85.648 5.49602 85.96 6.06002V4.26002H87.616V14.124H85.96V12.288C85.636 12.864 85.15 13.344 84.502 13.728C83.866 14.1 83.122 14.286 82.27 14.286C81.394 14.286 80.602 14.07 79.894 13.638C79.186 13.206 78.628 12.6 78.22 11.82C77.812 11.04 77.608 10.152 77.608 9.15602ZM85.96 9.17402C85.96 8.43002 85.81 7.78202 85.51 7.23002C85.21 6.67802 84.802 6.25802 84.286 5.97002C83.782 5.67002 83.224 5.52002 82.612 5.52002C82 5.52002 81.442 5.66402 80.938 5.95202C80.434 6.24002 80.032 6.66002 79.732 7.21202C79.432 7.76402 79.282 8.41202 79.282 9.15602C79.282 9.91202 79.432 10.572 79.732 11.136C80.032 11.688 80.434 12.114 80.938 12.414C81.442 12.702 82 12.846 82.612 12.846C83.224 12.846 83.782 12.702 84.286 12.414C84.802 12.114 85.21 11.688 85.51 11.136C85.81 10.572 85.96 9.91802 85.96 9.17402ZM92.382 5.61002V11.424C92.382 11.904 92.484 12.246 92.688 12.45C92.892 12.642 93.246 12.738 93.75 12.738H94.956V14.124H93.48C92.568 14.124 91.884 13.914 91.428 13.494C90.972 13.074 90.744 12.384 90.744 11.424V5.61002H89.466V4.26002H90.744V1.77602H92.382V4.26002H94.956V5.61002H92.382ZM97.7867 2.65802C97.4747 2.65802 97.2107 2.55002 96.9947 2.33402C96.7787 2.11802 96.6707 1.85402 96.6707 1.54202C96.6707 1.23002 96.7787 0.966023 96.9947 0.750023C97.2107 0.534023 97.4747 0.426023 97.7867 0.426023C98.0867 0.426023 98.3387 0.534023 98.5427 0.750023C98.7587 0.966023 98.8667 1.23002 98.8667 1.54202C98.8667 1.85402 98.7587 2.11802 98.5427 2.33402C98.3387 2.55002 98.0867 2.65802 97.7867 2.65802ZM98.5787 4.26002V14.124H96.9407V4.26002H98.5787ZM105.672 14.286C104.748 14.286 103.908 14.076 103.152 13.656C102.408 13.236 101.82 12.642 101.388 11.874C100.968 11.094 100.758 10.194 100.758 9.17402C100.758 8.16602 100.974 7.27802 101.406 6.51002C101.85 5.73002 102.45 5.13602 103.206 4.72802C103.962 4.30802 104.808 4.09802 105.744 4.09802C106.68 4.09802 107.526 4.30802 108.282 4.72802C109.038 5.13602 109.632 5.72402 110.064 6.49202C110.508 7.26002 110.73 8.15402 110.73 9.17402C110.73 10.194 110.502 11.094 110.046 11.874C109.602 12.642 108.996 13.236 108.228 13.656C107.46 14.076 106.608 14.286 105.672 14.286ZM105.672 12.846C106.26 12.846 106.812 12.708 107.328 12.432C107.844 12.156 108.258 11.742 108.57 11.19C108.894 10.638 109.056 9.96602 109.056 9.17402C109.056 8.38202 108.9 7.71002 108.588 7.15802C108.276 6.60602 107.868 6.19802 107.364 5.93402C106.86 5.65802 106.314 5.52002 105.726 5.52002C105.126 5.52002 104.574 5.65802 104.07 5.93402C103.578 6.19802 103.182 6.60602 102.882 7.15802C102.582 7.71002 102.432 8.38202 102.432 9.17402C102.432 9.97802 102.576 10.656 102.864 11.208C103.164 11.76 103.56 12.174 104.052 12.45C104.544 12.714 105.084 12.846 105.672 12.846ZM117.69 4.08002C118.89 4.08002 119.862 4.44602 120.606 5.17802C121.35 5.89802 121.722 6.94202 121.722 8.31002V14.124H120.102V8.54402C120.102 7.56002 119.856 6.81002 119.364 6.29402C118.872 5.76602 118.2 5.50202 117.348 5.50202C116.484 5.50202 115.794 5.77202 115.278 6.31202C114.774 6.85202 114.522 7.63802 114.522 8.67002V14.124H112.884V4.26002H114.522V5.66402C114.846 5.16002 115.284 4.77002 115.836 4.49402C116.4 4.21802 117.018 4.08002 117.69 4.08002Z" fill="#C2410C"/>
</svg>
