<svg width="362" height="41" viewBox="0 0 362 41" fill="none" xmlns="http://www.w3.org/2000/svg">
<g clip-path="url(#clip0_2242_62357)">
<path d="M113.547 25.4393C113.547 20.1579 112.303 15.9793 109.854 13.0104C107.354 9.98425 103.855 8.4502 99.4395 8.4502C95.0243 8.4502 91.3418 10.0415 88.6286 13.1783C86.068 16.1396 84.7705 19.906 84.7705 24.3708C84.7705 28.9921 85.9459 32.7356 88.2737 35.5099C90.8381 38.5437 94.6007 40.0892 99.4395 40.0892C103.256 40.0892 106.377 39.1085 108.735 37.1699C110.739 35.5099 112.261 33.0982 113.254 30.0071L113.54 29.1218H108.079L107.945 29.6484C107.544 31.4554 106.476 33.0445 104.954 34.098C103.33 35.1889 101.407 35.7477 99.4509 35.6969C96.3981 35.6969 94.0588 34.7505 92.3645 32.7967C90.8915 31.1024 90.0748 28.8585 89.9833 26.1224H113.559L113.547 25.4393ZM99.428 12.8272C102.29 12.8272 104.461 13.7774 106.076 15.7274C107.434 17.3607 108.174 19.471 108.289 21.9972H90.071C90.4069 19.7084 91.3668 17.5563 92.8453 15.777C93.6498 14.8187 94.6612 14.0553 95.8034 13.5444C96.9456 13.0334 98.1888 12.7882 99.4395 12.8272H99.428Z" fill="#C2410C"/>
<path d="M128.174 13.583H134.894V8.62213H127.8V5.33268C127.8 0.112302 122.687 0.112305 122.687 0.112305V8.62213H117.779V13.583H122.687V28.1909C122.687 31.7971 123.866 34.7164 126.186 36.8763C128.506 39.0362 131.319 40.0818 134.879 40.0818V35.2354C132.425 35.2354 130.609 34.4302 129.315 32.7778C128.276 31.4122 127.737 29.7309 127.789 28.0154V13.583H128.174Z" fill="#C2410C"/>
<path d="M67.2321 13.3042C69.6897 13.3042 71.5137 14.1056 72.8112 15.758C73.85 17.1225 74.3888 18.8024 74.3376 20.5166V34.865C74.3376 40.0816 79.4512 40.0816 79.4512 40.0816V20.3449C79.4512 16.7883 78.3063 13.8881 76.0396 11.7053C73.7156 9.51488 70.8459 8.4502 67.2626 8.4502C63.6794 8.4502 60.8669 9.49961 58.5735 11.6595C56.28 13.8194 55.0703 16.7387 55.0703 20.3449V40.0816H60.18V20.528C60.1264 18.8123 60.6654 17.1305 61.7065 15.7656C62.9772 14.1056 64.7784 13.3042 67.2321 13.3042Z" fill="#C2410C"/>
<path d="M162.576 11.7058C160.252 9.51536 157.39 8.45068 153.799 8.45068C151.025 8.45068 148.697 9.09941 146.717 10.4007V0.124023H141.588V40.1278H146.698V20.5285C146.642 18.8125 147.181 17.1301 148.224 15.7661C149.518 14.1175 151.334 13.3162 153.788 13.3162C156.242 13.3162 158.066 14.1175 159.363 15.7699C160.402 17.1345 160.941 18.8143 160.89 20.5285V34.9227C160.89 40.1393 166.007 40.1393 166.007 40.1393V20.3454C165.98 16.7888 164.828 13.8886 162.576 11.7058Z" fill="#C2410C"/>
<path d="M178.539 32.6784C178.996 33.4288 179.632 34.0542 180.39 34.4987C181.191 34.9655 182.066 35.2945 182.977 35.4718C183.953 35.6689 184.946 35.7673 185.942 35.7656C186.768 35.7619 187.593 35.702 188.411 35.5863C189.231 35.4822 190.032 35.2652 190.792 34.9414C191.498 34.6425 192.114 34.1667 192.582 33.56C193.074 32.8893 193.323 32.0709 193.288 31.2398C193.319 30.6646 193.2 30.0913 192.942 29.5761C192.685 29.061 192.297 28.6217 191.819 28.3014C190.69 27.5676 189.451 27.0212 188.148 26.6834C186.677 26.2713 185.081 25.8998 183.358 25.5691C181.717 25.2603 180.112 24.7873 178.565 24.1572C177.163 23.5955 175.907 22.721 174.894 21.6004C173.915 20.5039 173.425 18.9775 173.425 17.0211C173.387 15.6371 173.745 14.271 174.456 13.0829C175.124 12.0041 176.028 11.0908 177.1 10.4117C178.222 9.70791 179.452 9.1923 180.741 8.88528C182.057 8.55691 183.409 8.38905 184.767 8.38537C186.365 8.374 187.96 8.52229 189.529 8.82804C190.896 9.08894 192.201 9.60691 193.376 10.3545C194.501 11.0914 195.42 12.1026 196.047 13.2928C196.767 14.728 197.168 16.3018 197.222 17.9065H192.231C192.189 17.0417 191.926 16.2021 191.468 15.468C191.045 14.8303 190.483 14.2977 189.823 13.911C189.137 13.5124 188.393 13.224 187.617 13.0562C186.816 12.8808 185.999 12.7925 185.179 12.7929C184.421 12.7952 183.665 12.8539 182.916 12.9685C182.194 13.0746 181.491 13.2827 180.828 13.5867C180.235 13.8548 179.713 14.2572 179.302 14.762C178.891 15.3108 178.683 15.9852 178.714 16.6701C178.704 17.072 178.78 17.4714 178.937 17.8414C179.095 18.2114 179.33 18.5433 179.626 18.8147C180.304 19.4264 181.091 19.9042 181.946 20.2228C182.977 20.6233 184.039 20.9385 185.121 21.1654C186.297 21.4198 187.472 21.6844 188.647 21.9591C189.899 22.2339 191.123 22.5659 192.319 22.9551C193.447 23.3161 194.517 23.8407 195.494 24.5121C196.407 25.1531 197.169 25.9868 197.726 26.9543C198.328 28.0709 198.621 29.3274 198.577 30.5949C198.637 32.199 198.24 33.7873 197.432 35.1742C196.681 36.3788 195.654 37.3873 194.436 38.1163C193.149 38.8802 191.735 39.4075 190.262 39.6733C188.741 39.964 187.196 40.1109 185.648 40.1121C184.027 40.1196 182.409 39.9416 180.828 39.5817C179.38 39.2649 178.005 38.6771 176.776 37.8492C175.59 37.0388 174.622 35.9499 173.956 34.6781C173.205 33.1916 172.803 31.5538 172.78 29.8889H177.776C177.782 30.8694 178.045 31.8311 178.539 32.6784Z" fill="#C2410C"/>
<path d="M225.61 37.5289C223.341 39.2487 220.481 40.1099 217.032 40.1124C214.867 40.1622 212.715 39.762 210.712 38.9371C208.985 38.194 207.448 37.0694 206.217 35.6476C204.966 34.1694 204.036 32.4477 203.485 30.5913C202.857 28.5124 202.512 26.3587 202.458 24.188C202.434 22.0318 202.792 19.8884 203.515 17.8571C204.173 16.016 205.181 14.3197 206.484 12.8619C207.744 11.4592 209.285 10.3372 211.006 9.56862C212.809 8.77416 214.76 8.37346 216.73 8.39328C219.432 8.39328 221.675 8.95169 223.458 10.0685C225.196 11.1414 226.664 12.5999 227.747 14.3311C228.829 16.0597 229.587 17.971 229.983 19.9712C230.383 21.884 230.549 23.838 230.48 25.7907H207.747C207.699 27.0709 207.857 28.3504 208.217 29.5801C208.553 30.7457 209.133 31.8267 209.919 32.7512C210.741 33.7017 211.766 34.4554 212.918 34.9569C214.273 35.5344 215.735 35.8154 217.207 35.7812C219.321 35.7812 221.055 35.2914 222.409 34.312C223.762 33.3325 224.652 31.843 225.08 29.8434H230.014C229.353 33.2422 227.885 35.8041 225.61 37.5289ZM224.397 18.0174C223.457 15.9171 221.735 14.2661 219.598 13.4153C217.46 12.5644 215.074 12.5808 212.949 13.461C211.942 13.8901 211.033 14.5198 210.277 15.3118C209.528 16.1071 208.93 17.0332 208.514 18.0441C208.079 19.1024 207.821 20.2255 207.751 21.3679H225.198C225.122 20.2139 224.851 19.0811 224.397 18.0174Z" fill="#C2410C"/>
<path d="M268.983 39.4674L257.699 9.08008H263.282L271.803 34.4073H271.922L280.206 9.08008H285.453L274.345 39.4636L268.983 39.4674Z" fill="#C2410C"/>
<path d="M321.225 14.3733C319.971 13.3175 318.287 12.7884 316.173 12.7858C314.604 12.7331 313.047 13.077 311.647 13.7856C310.473 14.4141 309.473 15.3225 308.735 16.4302C307.986 17.5859 307.458 18.8708 307.178 20.2195C306.863 21.6777 306.705 23.1657 306.709 24.6576C306.705 26.044 306.872 27.4255 307.205 28.7713C307.509 30.0398 308.036 31.2441 308.762 32.3279C309.47 33.3687 310.418 34.2245 311.525 34.8236C312.78 35.4811 314.184 35.8056 315.6 35.7662C318.066 35.7662 319.994 35.1187 321.385 33.8238C322.777 32.5289 323.629 30.7074 323.942 28.3592H329.056C328.506 32.1218 327.107 35.0208 324.858 37.056C322.609 39.0913 319.544 40.1089 315.661 40.1089C313.552 40.1524 311.455 39.7736 309.495 38.9946C307.778 38.3011 306.247 37.215 305.026 35.8234C303.797 34.391 302.878 32.7203 302.324 30.916C301.698 28.8896 301.391 26.7784 301.412 24.6576C301.396 22.5006 301.693 20.3527 302.294 18.281C302.832 16.3973 303.74 14.6395 304.965 13.1102C306.179 11.6261 307.717 10.4396 309.46 9.6414C311.438 8.76386 313.586 8.33261 315.749 8.37828C317.385 8.36702 319.015 8.57493 320.596 8.99648C322.035 9.37598 323.391 10.0233 324.591 10.9045C325.759 11.7805 326.73 12.8921 327.442 14.1672C328.226 15.6117 328.706 17.2012 328.854 18.8381H323.694C323.302 16.9123 322.479 15.424 321.225 14.3733Z" fill="#C2410C"/>
<path d="M356.131 37.529C353.859 39.2488 350.999 40.1099 347.552 40.1125C345.387 40.1623 343.235 39.762 341.233 38.9371C339.506 38.193 337.969 37.0686 336.738 35.6477C335.487 34.1695 334.556 32.4478 334.005 30.5914C333.378 28.5125 333.033 26.3588 332.979 24.188C332.954 22.0319 333.312 19.8885 334.036 17.8572C334.694 16.0161 335.702 14.3197 337.005 12.862C338.266 11.4592 339.808 10.3372 341.531 9.56869C343.333 8.77333 345.285 8.37259 347.255 8.39335C349.956 8.39335 352.199 8.95176 353.982 10.0686C355.72 11.1414 357.188 12.5999 358.272 14.3311C359.353 16.0598 360.111 17.971 360.508 19.9713C360.908 21.8839 361.076 23.8379 361.008 25.7908H338.264C338.217 27.0709 338.376 28.3501 338.733 29.5801C339.069 30.7467 339.651 31.8279 340.439 32.7513C341.26 33.7013 342.284 34.455 343.435 34.957C344.789 35.5344 346.252 35.8155 347.724 35.7812C349.841 35.7812 351.574 35.2915 352.925 34.3121C354.276 33.3326 355.167 31.8431 355.597 29.8434H360.531C359.872 33.2423 358.405 35.8041 356.131 37.529ZM354.929 18.0175C354.276 16.4497 353.168 15.1135 351.748 14.181C350.329 13.2485 348.663 12.7625 346.965 12.7856C345.765 12.7672 344.575 12.9972 343.469 13.4611C342.463 13.8911 341.554 14.5207 340.798 15.3119C340.048 16.1072 339.451 17.0333 339.035 18.0442C338.599 19.1025 338.341 20.2256 338.272 21.368H355.726C355.651 20.2142 355.381 19.0815 354.929 18.0175Z" fill="#C2410C"/>
<path d="M295.311 9.08008V39.4636H290.315V9.08008H295.311Z" fill="#C2410C"/>
<path d="M292.815 5.3444C294.257 5.3444 295.425 4.17578 295.425 2.73421C295.425 1.29264 294.257 0.124023 292.815 0.124023C291.374 0.124023 290.205 1.29264 290.205 2.73421C290.205 4.17578 291.374 5.3444 292.815 5.3444Z" fill="#C2410C"/>
<path d="M255.574 12.2818C253.353 10.1868 250.613 9.16406 247.16 9.16406C243.706 9.16406 241.031 10.1677 238.841 12.2169C236.65 14.2661 235.482 17.0862 235.482 20.5359V39.4484H240.375V20.7229C240.321 19.0804 240.836 17.4696 241.832 16.1627C243.073 14.5791 244.813 13.812 247.175 13.812C249.537 13.812 251.277 14.5752 252.517 16.1627L255.574 12.2818Z" fill="#C2410C"/>
<path d="M29.2353 33.9421L16.4133 20.9904L4.58354 32.9423L0.969727 29.3667L16.4133 13.7666L29.117 26.5962L38.4588 16.5332L42.1832 19.9906L29.2353 33.9421Z" fill="#C2410C"/>
</g>
<defs>
<clipPath id="clip0_2242_62357">
<rect width="360.061" height="40" fill="white" transform="translate(0.969727 0.124023)"/>
</clipPath>
</defs>
</svg>
